<mxfile host="app.diagrams.net" modified="2022-06-29T02:11:40.660Z" agent="5.0 (Windows)" etag="RZxvOyrAA2c7eGF0gGsU" version="20.0.3" type="github">
  <diagram id="JpYngzoGlZ1lcstXwJA9" name="Page-1">
    <mxGraphModel dx="1422" dy="780" grid="1" gridSize="10" guides="1" tooltips="1" connect="1" arrows="1" fold="1" page="1" pageScale="1" pageWidth="850" pageHeight="1100" math="0" shadow="0">
      <root>
        <mxCell id="0" />
        <mxCell id="1" parent="0" />
        <mxCell id="kJHI-LQ95cBeYaXFi70L-3" style="edgeStyle=orthogonalEdgeStyle;rounded=0;orthogonalLoop=1;jettySize=auto;html=1;" edge="1" parent="1" source="Gd8aN9Ey7wASV0xl8fsA-1" target="Gd8aN9Ey7wASV0xl8fsA-2">
          <mxGeometry relative="1" as="geometry" />
        </mxCell>
        <mxCell id="Gd8aN9Ey7wASV0xl8fsA-1" value="mulai" style="strokeWidth=2;html=1;shape=mxgraph.flowchart.terminator;whiteSpace=wrap;" parent="1" vertex="1">
          <mxGeometry x="365" y="50" width="100" height="60" as="geometry" />
        </mxCell>
        <mxCell id="kJHI-LQ95cBeYaXFi70L-4" value="" style="edgeStyle=orthogonalEdgeStyle;rounded=0;orthogonalLoop=1;jettySize=auto;html=1;" edge="1" parent="1" source="Gd8aN9Ey7wASV0xl8fsA-2" target="Gd8aN9Ey7wASV0xl8fsA-3">
          <mxGeometry relative="1" as="geometry" />
        </mxCell>
        <mxCell id="Gd8aN9Ey7wASV0xl8fsA-2" value="&lt;div&gt;input data&lt;/div&gt;&lt;div&gt;testing, k&lt;br&gt;&lt;/div&gt;" style="shape=parallelogram;html=1;strokeWidth=2;perimeter=parallelogramPerimeter;whiteSpace=wrap;rounded=1;arcSize=12;size=0.23;" parent="1" vertex="1">
          <mxGeometry x="365" y="140" width="100" height="60" as="geometry" />
        </mxCell>
        <mxCell id="kJHI-LQ95cBeYaXFi70L-5" value="" style="edgeStyle=orthogonalEdgeStyle;rounded=0;orthogonalLoop=1;jettySize=auto;html=1;" edge="1" parent="1" source="Gd8aN9Ey7wASV0xl8fsA-3" target="Gd8aN9Ey7wASV0xl8fsA-4">
          <mxGeometry relative="1" as="geometry" />
        </mxCell>
        <mxCell id="Gd8aN9Ey7wASV0xl8fsA-3" value="&lt;div&gt;menghitung jarak&lt;/div&gt;&lt;div&gt;euclidean&lt;br&gt;&lt;/div&gt;" style="rounded=0;whiteSpace=wrap;html=1;strokeWidth=2;" parent="1" vertex="1">
          <mxGeometry x="355" y="230" width="120" height="60" as="geometry" />
        </mxCell>
        <mxCell id="kJHI-LQ95cBeYaXFi70L-6" value="" style="edgeStyle=orthogonalEdgeStyle;rounded=0;orthogonalLoop=1;jettySize=auto;html=1;" edge="1" parent="1" source="Gd8aN9Ey7wASV0xl8fsA-4" target="Gd8aN9Ey7wASV0xl8fsA-5">
          <mxGeometry relative="1" as="geometry" />
        </mxCell>
        <mxCell id="Gd8aN9Ey7wASV0xl8fsA-4" value="perankingan hasil perhitungan jarak euclidean" style="rounded=0;whiteSpace=wrap;html=1;strokeWidth=2;" parent="1" vertex="1">
          <mxGeometry x="355" y="320" width="120" height="60" as="geometry" />
        </mxCell>
        <mxCell id="kJHI-LQ95cBeYaXFi70L-7" value="" style="edgeStyle=orthogonalEdgeStyle;rounded=0;orthogonalLoop=1;jettySize=auto;html=1;" edge="1" parent="1" source="Gd8aN9Ey7wASV0xl8fsA-5" target="Gd8aN9Ey7wASV0xl8fsA-6">
          <mxGeometry relative="1" as="geometry" />
        </mxCell>
        <mxCell id="Gd8aN9Ey7wASV0xl8fsA-5" value="ambil data sebanyak k" style="rounded=0;whiteSpace=wrap;html=1;strokeWidth=2;" parent="1" vertex="1">
          <mxGeometry x="355" y="410" width="120" height="60" as="geometry" />
        </mxCell>
        <mxCell id="kJHI-LQ95cBeYaXFi70L-8" value="" style="edgeStyle=orthogonalEdgeStyle;rounded=0;orthogonalLoop=1;jettySize=auto;html=1;" edge="1" parent="1" source="Gd8aN9Ey7wASV0xl8fsA-6" target="Gd8aN9Ey7wASV0xl8fsA-7">
          <mxGeometry relative="1" as="geometry" />
        </mxCell>
        <mxCell id="Gd8aN9Ey7wASV0xl8fsA-6" value="pengumpulan kategori (klasifikasi k-nearest neighbor)" style="rounded=0;whiteSpace=wrap;html=1;strokeWidth=2;" parent="1" vertex="1">
          <mxGeometry x="355" y="500" width="120" height="60" as="geometry" />
        </mxCell>
        <mxCell id="kJHI-LQ95cBeYaXFi70L-9" value="" style="edgeStyle=orthogonalEdgeStyle;rounded=0;orthogonalLoop=1;jettySize=auto;html=1;" edge="1" parent="1" source="Gd8aN9Ey7wASV0xl8fsA-7" target="Gd8aN9Ey7wASV0xl8fsA-8">
          <mxGeometry relative="1" as="geometry" />
        </mxCell>
        <mxCell id="Gd8aN9Ey7wASV0xl8fsA-7" value="&lt;div&gt;hasil &lt;br&gt;&lt;/div&gt;&lt;div&gt;klasifikasi&lt;/div&gt;" style="shape=parallelogram;html=1;strokeWidth=2;perimeter=parallelogramPerimeter;whiteSpace=wrap;rounded=1;arcSize=12;size=0.23;" parent="1" vertex="1">
          <mxGeometry x="365" y="590" width="100" height="60" as="geometry" />
        </mxCell>
        <mxCell id="Gd8aN9Ey7wASV0xl8fsA-8" value="selesai" style="strokeWidth=2;html=1;shape=mxgraph.flowchart.terminator;whiteSpace=wrap;" parent="1" vertex="1">
          <mxGeometry x="365" y="680" width="100" height="60" as="geometry" />
        </mxCell>
      </root>
    </mxGraphModel>
  </diagram>
</mxfile>
